<svg xmlns="http://www.w3.org/2000/svg" style="display:none">
  <symbol id="file-plus" viewBox="0 0 24 24"><path d="M7 3h7l5 5v13H7z"/><path d="M14 3v5h5"/><path d="M13 12v6M10 15h6"/></symbol>
  <symbol id="folder-open" viewBox="0 0 24 24"><path d="M3 7h6l2 2h10l-1 11H4z"/><path d="M4 12h17"/></symbol>
  <symbol id="device-floppy" viewBox="0 0 24 24"><path d="M7 3h10l2 2v16H7z"/><path d="M9 5h8v5H9z"/><path d="M9 15h8v5H9z"/></symbol>
  <symbol id="file-export" viewBox="0 0 24 24"><path d="M7 3h7l5 5v13H7z"/><path d="M14 3v5h5"/><path d="M11 16l6-6M17 10v5M17 10h-5"/></symbol>
  <symbol id="undo" viewBox="0 0 24 24"><path d="M9 14L4 9l5-5"/><path d="M5 9h10l5 5-3 5"/></symbol>
  <symbol id="redo" viewBox="0 0 24 24"><path d="M15 14l5-5-5-5"/><path d="M19 9H9l-5 5 3 5"/></symbol>
  <symbol id="fit" viewBox="0 0 24 24"><path d="M4 10V4h6M14 4h6v6M20 14v6h-6M10 20H4v-6"/></symbol>
  <symbol id="zoom" viewBox="0 0 24 24"><circle cx="10" cy="10" r="5"/><path d="M14 14l6 6"/></symbol>
  <symbol id="brush" viewBox="0 0 24 24"><path d="M7 19l-2 2H3v-2l2-2"/><path d="M6 17l9-9 3 3-9 9"/><path d="M15 8l2-4 4-1-1 4-2 4"/></symbol>
  <symbol id="eraser" viewBox="0 0 24 24"><path d="M5 16l8-8 6 6-8 8z"/><path d="M9 12l6 6"/><path d="M11 22h10"/></symbol>
  <symbol id="move" viewBox="0 0 24 24"><path d="M12 3v18M3 12h18"/><path d="M12 3l-3 3h6zM12 21l-3-3h6zM3 12l3-3v6zM21 12l-3-3v6z"/></symbol>
  <symbol id="picker" viewBox="0 0 24 24"><path d="M14 5l5 5"/><path d="M13 6l-8 8-1 6 6-1 8-8"/><path d="M7 16l3 3"/></symbol>
  <symbol id="bucket" viewBox="0 0 24 24"><path d="M5 10l6-6 9 9-6 6z"/><path d="M8 7l9 9"/><circle cx="19" cy="20" r="1.5"/></symbol>
  <symbol id="select" viewBox="0 0 24 24"><path d="M5 5h14v14H5z"/></symbol>
  <symbol id="text" viewBox="0 0 24 24"><path d="M5 5h14M12 5v15M8 20h8"/></symbol>
  <symbol id="shape" viewBox="0 0 24 24"><path d="M4 4h10v10H4z"/><circle cx="16" cy="16" r="5"/></symbol>
  <symbol id="eye" viewBox="0 0 24 24"><path d="M3 12s4-7 9-7 9 7 9 7-4 7-9 7-9-7-9-7z"/><circle cx="12" cy="12" r="3"/></symbol>
  <symbol id="lock" viewBox="0 0 24 24"><path d="M6 10h12v11H6z"/><path d="M8 10V7l4-4 4 4v3"/></symbol>
  <symbol id="trash" viewBox="0 0 24 24"><path d="M5 7h14M9 7V4h6v3M7 7l1 14h8l1-14"/></symbol>
  <symbol id="copy" viewBox="0 0 24 24"><path d="M8 8h12v12H8z"/><path d="M4 4h12v12H4z"/></symbol>
  <symbol id="layers" viewBox="0 0 24 24"><path d="M12 3l9 5-9 5-9-5z"/><path d="M3 12l9 5 9-5M3 16l9 5 9-5"/></symbol>
  <symbol id="plus" viewBox="0 0 24 24"><path d="M12 5v14M5 12h14"/></symbol>
  <symbol id="minus" viewBox="0 0 24 24"><path d="M5 12h14"/></symbol>
  <symbol id="x" viewBox="0 0 24 24"><path d="M6 6l12 12M18 6L6 18"/></symbol>
</svg>
